<svg width="150" height="47" viewBox="0 0 150 47" fill="none" xmlns="http://www.w3.org/2000/svg">
<rect x="51" y="11" width="99" height="25" rx="3" fill="black"/>
<path d="M63.2172 26.68C63.2172 28.248 62.8492 29.4 62.1132 30.136C61.3772 30.872 60.2412 31.24 58.7052 31.24C57.1852 31.24 55.5692 31.16 53.8572 31V27.76C55.1052 27.84 56.3852 27.88 57.6972 27.88C58.0652 27.88 58.3532 27.776 58.5612 27.568C58.7852 27.344 58.8972 27.048 58.8972 26.68V17.56H55.7772V14.2H63.2172V26.68ZM70.8963 27.88C71.7443 27.88 72.7043 27.72 73.7763 27.4V25.96H70.2963C70.0563 25.96 69.8563 26.04 69.6963 26.2C69.5363 26.36 69.4563 26.56 69.4563 26.8V27.04C69.4563 27.28 69.5363 27.48 69.6963 27.64C69.8563 27.8 70.0563 27.88 70.2963 27.88H70.8963ZM66.4563 18.52C69.3843 18.2 72.0243 18.04 74.3763 18.04C75.4643 18.04 76.3363 18.368 76.9922 19.024C77.6483 19.68 77.9763 20.552 77.9763 21.64V31H74.2563L74.0163 29.8C73.2643 30.296 72.4883 30.664 71.6883 30.904C70.9043 31.128 70.2403 31.24 69.6963 31.24H68.8563C67.7683 31.24 66.8963 30.912 66.2402 30.256C65.5843 29.6 65.2563 28.728 65.2563 27.64V26.56C65.2563 25.472 65.5843 24.6 66.2402 23.944C66.8963 23.288 67.7683 22.96 68.8563 22.96H73.7763V22C73.7763 21.76 73.6963 21.56 73.5363 21.4C73.3763 21.24 73.1763 21.16 72.9363 21.16C71.8963 21.16 70.7443 21.208 69.4803 21.304C68.2323 21.4 67.2243 21.472 66.4563 21.52V18.52ZM83.2553 35.32C82.4073 35.32 81.3673 35.24 80.1353 35.08V31.96H82.2953C82.9033 31.96 83.2953 31.792 83.4713 31.456C83.6633 31.12 83.6313 30.648 83.3753 30.04L78.4553 18.28H82.8953L85.8953 26.44L88.4153 18.28H92.8553L88.0553 31.48C87.5913 32.744 86.9913 33.696 86.2553 34.336C85.5193 34.992 84.5193 35.32 83.2553 35.32Z" fill="url(#paint0_linear_120_34)"/>
<path d="M103.7 22.12C103.7 21.88 103.62 21.68 103.46 21.52C103.3 21.36 103.1 21.28 102.86 21.28H102.26C101.588 21.28 101.004 21.312 100.508 21.376C100.028 21.44 99.6525 21.488 99.3805 21.52V27.76H102.74C103.38 27.76 103.7 27.44 103.7 26.8V22.12ZM99.3805 18.52C100.932 18.2 102.292 18.04 103.46 18.04H104.3C105.388 18.04 106.26 18.368 106.916 19.024C107.572 19.68 107.9 20.552 107.9 21.64V27.16C107.9 28.36 107.556 29.304 106.868 29.992C106.196 30.664 105.26 31 104.06 31H95.1805V14.2H99.3805V18.52ZM116.543 31C115.471 31.16 114.447 31.24 113.471 31.24C112.511 31.24 111.703 30.912 111.047 30.256C110.391 29.6 110.063 28.728 110.063 27.64V14.2H114.263V27.04C114.263 27.28 114.343 27.48 114.503 27.64C114.663 27.8 114.863 27.88 115.103 27.88H116.543V31ZM131.18 27.4C131.18 28.6 130.836 29.544 130.148 30.232C129.476 30.904 128.54 31.24 127.34 31.24H121.82C120.62 31.24 119.676 30.904 118.988 30.232C118.316 29.544 117.98 28.6 117.98 27.4V21.88C117.98 20.68 118.316 19.744 118.988 19.072C119.676 18.384 120.62 18.04 121.82 18.04H127.34C128.54 18.04 129.476 18.384 130.148 19.072C130.836 19.744 131.18 20.68 131.18 21.88V27.4ZM126.98 22.24C126.98 21.6 126.66 21.28 126.02 21.28H123.14C122.5 21.28 122.18 21.6 122.18 22.24V27.04C122.18 27.68 122.5 28 123.14 28H126.02C126.66 28 126.98 27.68 126.98 27.04V22.24ZM141.617 30.04C140.065 30.36 138.705 30.52 137.537 30.52H136.697C135.609 30.52 134.737 30.192 134.081 29.536C133.425 28.88 133.097 28.008 133.097 26.92V22.12C133.097 20.92 133.433 19.984 134.105 19.312C134.793 18.624 135.737 18.28 136.937 18.28H145.817V31.72C145.817 32.808 145.489 33.68 144.833 34.336C144.177 34.992 143.305 35.32 142.217 35.32C139.705 35.32 136.905 35.16 133.817 34.84V31.72C136.873 31.96 139.193 32.08 140.777 32.08C141.017 32.08 141.217 32 141.377 31.84C141.537 31.68 141.617 31.48 141.617 31.24V30.04ZM138.737 27.28C139.745 27.28 140.705 27.2 141.617 27.04V21.52H138.257C137.617 21.52 137.297 21.84 137.297 22.48V26.44C137.297 26.68 137.377 26.88 137.537 27.04C137.697 27.2 137.897 27.28 138.137 27.28H138.737Z" fill="white"/>
<circle cx="23" cy="23" r="23" fill="url(#paint1_linear_120_34)"/>
<g filter="url(#filter0_d_120_34)">
<path d="M38.0497 31.7247C38.3097 33.4696 37.0947 35.1098 35.3499 35.3697L14.7292 38.4417C12.9843 38.7016 11.3441 37.4867 11.0841 35.7418L9.54818 25.4315C9.28825 23.6866 10.5032 22.0464 12.248 21.7864L32.8687 18.7145C34.6136 18.4546 36.2538 19.6695 36.5138 21.4144L38.0497 31.7247Z" fill="#241043"/>
<path d="M9.07558 22.259L36.0412 18.2419L36.7501 23.0006L9.78448 27.0177L9.07558 22.259Z" fill="#3F7123"/>
<path d="M9.07558 22.259L36.0412 18.2419L36.8682 23.7937L9.90263 27.8108L9.07558 22.259Z" fill="#241043"/>
<path d="M9.07558 22.259L12.248 21.7864L9.90263 27.8108L9.07558 22.259ZM17.7997 20.9594L15.4544 26.9837L21.0061 26.1567L23.3515 20.1323L17.7997 20.9594ZM28.9032 19.3053L26.5578 25.3296L32.1096 24.5026L34.455 18.4782L28.9032 19.3053Z" fill="white"/>
<path d="M6.93262 17.072L32.1299 6.66486L34.2727 11.852L9.07557 22.2599L6.93262 17.072Z" fill="white"/>
<path d="M6.93263 17.0721L12.0403 21.0352L9.07557 22.26L6.93263 17.0721ZM22.4162 16.7501L17.3084 12.7862L12.1205 14.9291L17.2283 18.893L22.4162 16.7501ZM32.792 12.4642L27.6842 8.50032L22.4963 10.6433L27.604 14.6064L32.792 12.4642Z" fill="#241043"/>
</g>
<defs>
<filter id="filter0_d_120_34" x="2.93262" y="6.66479" width="39.1521" height="39.812" filterUnits="userSpaceOnUse" color-interpolation-filters="sRGB">
<feFlood flood-opacity="0" result="BackgroundImageFix"/>
<feColorMatrix in="SourceAlpha" type="matrix" values="0 0 0 0 0 0 0 0 0 0 0 0 0 0 0 0 0 0 127 0" result="hardAlpha"/>
<feOffset dy="4"/>
<feGaussianBlur stdDeviation="2"/>
<feComposite in2="hardAlpha" operator="out"/>
<feColorMatrix type="matrix" values="0 0 0 0 0 0 0 0 0 0 0 0 0 0 0 0 0 0 0.25 0"/>
<feBlend mode="normal" in2="BackgroundImageFix" result="effect1_dropShadow_120_34"/>
<feBlend mode="normal" in="SourceGraphic" in2="effect1_dropShadow_120_34" result="shape"/>
</filter>
<linearGradient id="paint0_linear_120_34" x1="57.5" y1="12.5" x2="86.5" y2="39.5" gradientUnits="userSpaceOnUse">
<stop stop-color="#F86E0C"/>
<stop offset="1" stop-color="#F7BE09"/>
</linearGradient>
<linearGradient id="paint1_linear_120_34" x1="10.6481" y1="10.6481" x2="34.0741" y2="43.0185" gradientUnits="userSpaceOnUse">
<stop stop-color="#F8670B"/>
<stop offset="1" stop-color="#F7C509"/>
</linearGradient>
</defs>
</svg>
