<svg width="99" height="75" viewBox="0 0 99 75" fill="none" xmlns="http://www.w3.org/2000/svg">
<rect y="49" width="99" height="26" rx="3" fill="#241043"/>
<path d="M12.2172 64.68C12.2172 66.248 11.8492 67.4 11.1132 68.136C10.3772 68.872 9.24119 69.24 7.70519 69.24C6.18519 69.24 4.56919 69.16 2.85719 69V65.76C4.10519 65.84 5.38519 65.88 6.69719 65.88C7.06519 65.88 7.35319 65.776 7.56119 65.568C7.78519 65.344 7.89719 65.048 7.89719 64.68V55.56H4.77719V52.2H12.2172V64.68ZM19.8963 65.88C20.7443 65.88 21.7043 65.72 22.7763 65.4V63.96H19.2963C19.0563 63.96 18.8563 64.04 18.6963 64.2C18.5363 64.36 18.4563 64.56 18.4563 64.8V65.04C18.4563 65.28 18.5363 65.48 18.6963 65.64C18.8563 65.8 19.0563 65.88 19.2963 65.88H19.8963ZM15.4563 56.52C18.3843 56.2 21.0243 56.04 23.3763 56.04C24.4643 56.04 25.3363 56.368 25.9922 57.024C26.6483 57.68 26.9763 58.552 26.9763 59.64V69H23.2563L23.0163 67.8C22.2643 68.296 21.4883 68.664 20.6883 68.904C19.9043 69.128 19.2403 69.24 18.6963 69.24H17.8563C16.7683 69.24 15.8963 68.912 15.2402 68.256C14.5843 67.6 14.2563 66.728 14.2563 65.64V64.56C14.2563 63.472 14.5843 62.6 15.2402 61.944C15.8963 61.288 16.7683 60.96 17.8563 60.96H22.7763V60C22.7763 59.76 22.6963 59.56 22.5363 59.4C22.3763 59.24 22.1763 59.16 21.9363 59.16C20.8963 59.16 19.7443 59.208 18.4803 59.304C17.2323 59.4 16.2243 59.472 15.4563 59.52V56.52ZM32.2553 73.32C31.4073 73.32 30.3673 73.24 29.1353 73.08V69.96H31.2953C31.9033 69.96 32.2953 69.792 32.4713 69.456C32.6633 69.12 32.6313 68.648 32.3753 68.04L27.4553 56.28H31.8953L34.8953 64.44L37.4153 56.28H41.8553L37.0553 69.48C36.5913 70.744 35.9913 71.696 35.2553 72.336C34.5193 72.992 33.5193 73.32 32.2553 73.32Z" fill="url(#paint0_linear_110_46)"/>
<path d="M52.7005 60.12C52.7005 59.88 52.6205 59.68 52.4605 59.52C52.3005 59.36 52.1005 59.28 51.8605 59.28H51.2605C50.5885 59.28 50.0045 59.312 49.5085 59.376C49.0285 59.44 48.6525 59.488 48.3805 59.52V65.76H51.7405C52.3805 65.76 52.7005 65.44 52.7005 64.8V60.12ZM48.3805 56.52C49.9325 56.2 51.2925 56.04 52.4605 56.04H53.3005C54.3885 56.04 55.2605 56.368 55.9165 57.024C56.5725 57.68 56.9005 58.552 56.9005 59.64V65.16C56.9005 66.36 56.5565 67.304 55.8685 67.992C55.1965 68.664 54.2605 69 53.0605 69H44.1805V52.2H48.3805V56.52ZM65.5433 69C64.4713 69.16 63.4473 69.24 62.4713 69.24C61.5113 69.24 60.7033 68.912 60.0473 68.256C59.3913 67.6 59.0633 66.728 59.0633 65.64V52.2H63.2633V65.04C63.2633 65.28 63.3433 65.48 63.5033 65.64C63.6633 65.8 63.8633 65.88 64.1033 65.88H65.5433V69ZM80.1795 65.4C80.1795 66.6 79.8355 67.544 79.1475 68.232C78.4755 68.904 77.5395 69.24 76.3395 69.24H70.8195C69.6195 69.24 68.6755 68.904 67.9875 68.232C67.3155 67.544 66.9795 66.6 66.9795 65.4V59.88C66.9795 58.68 67.3155 57.744 67.9875 57.072C68.6755 56.384 69.6195 56.04 70.8195 56.04H76.3395C77.5395 56.04 78.4755 56.384 79.1475 57.072C79.8355 57.744 80.1795 58.68 80.1795 59.88V65.4ZM75.9795 60.24C75.9795 59.6 75.6595 59.28 75.0195 59.28H72.1395C71.4995 59.28 71.1795 59.6 71.1795 60.24V65.04C71.1795 65.68 71.4995 66 72.1395 66H75.0195C75.6595 66 75.9795 65.68 75.9795 65.04V60.24ZM90.6167 68.04C89.0647 68.36 87.7047 68.52 86.5367 68.52H85.6967C84.6087 68.52 83.7367 68.192 83.0807 67.536C82.4247 66.88 82.0967 66.008 82.0967 64.92V60.12C82.0967 58.92 82.4327 57.984 83.1047 57.312C83.7927 56.624 84.7367 56.28 85.9367 56.28H94.8167V69.72C94.8167 70.808 94.4887 71.68 93.8327 72.336C93.1767 72.992 92.3047 73.32 91.2167 73.32C88.7047 73.32 85.9047 73.16 82.8167 72.84V69.72C85.8727 69.96 88.1927 70.08 89.7767 70.08C90.0167 70.08 90.2167 70 90.3767 69.84C90.5367 69.68 90.6167 69.48 90.6167 69.24V68.04ZM87.7367 65.28C88.7447 65.28 89.7047 65.2 90.6167 65.04V59.52H87.2567C86.6167 59.52 86.2967 59.84 86.2967 60.48V64.44C86.2967 64.68 86.3767 64.88 86.5367 65.04C86.6967 65.2 86.8967 65.28 87.1367 65.28H87.7367Z" fill="white"/>
<circle cx="49" cy="22" r="22" fill="url(#paint1_linear_110_46)"/>
<g filter="url(#filter0_d_110_46)">
<path d="M63.3954 30.3456C63.644 32.0146 62.4819 33.5836 60.813 33.8322L41.0888 36.7705C39.4198 37.0192 37.8508 35.8571 37.6022 34.1881L36.133 24.326C35.8844 22.657 37.0465 21.0881 38.7155 20.8395L58.4397 17.9011C60.1086 17.6525 61.6776 18.8146 61.9262 20.4835L63.3954 30.3456Z" fill="#241043"/>
<path d="M35.681 21.2915L61.4742 17.4491L62.1522 22.0008L36.3591 25.8432L35.681 21.2915Z" fill="#3F7123"/>
<path d="M35.681 21.2915L61.4742 17.4491L62.2653 22.7594L36.4721 26.6019L35.681 21.2915Z" fill="#241043"/>
<path d="M35.681 21.2915L38.7155 20.8395L36.4721 26.6019L35.681 21.2915ZM44.0258 20.0484L41.7824 25.8108L47.0928 25.0197L49.3362 19.2573L44.0258 20.0484ZM54.6466 18.4662L52.4032 24.2286L57.7135 23.4375L59.9569 17.6751L54.6466 18.4662Z" fill="white"/>
<path d="M33.6312 16.3295L57.733 6.37487L59.7826 11.3364L35.681 21.2919L33.6312 16.3295Z" fill="white"/>
<path d="M33.6312 16.3297L38.5168 20.1205L35.681 21.292L33.6312 16.3297ZM48.4416 16.0217L43.5559 12.2302L38.5936 14.2799L43.4792 18.0715L48.4416 16.0217ZM58.3662 11.9222L53.4805 8.13062L48.5182 10.1804L53.4038 13.9712L58.3662 11.9222Z" fill="#241043"/>
</g>
<defs>
<filter id="filter0_d_110_46" x="29.6312" y="6.37476" width="37.7977" height="38.4292" filterUnits="userSpaceOnUse" color-interpolation-filters="sRGB">
<feFlood flood-opacity="0" result="BackgroundImageFix"/>
<feColorMatrix in="SourceAlpha" type="matrix" values="0 0 0 0 0 0 0 0 0 0 0 0 0 0 0 0 0 0 127 0" result="hardAlpha"/>
<feOffset dy="4"/>
<feGaussianBlur stdDeviation="2"/>
<feComposite in2="hardAlpha" operator="out"/>
<feColorMatrix type="matrix" values="0 0 0 0 0 0 0 0 0 0 0 0 0 0 0 0 0 0 0.25 0"/>
<feBlend mode="normal" in2="BackgroundImageFix" result="effect1_dropShadow_110_46"/>
<feBlend mode="normal" in="SourceGraphic" in2="effect1_dropShadow_110_46" result="shape"/>
</filter>
<linearGradient id="paint0_linear_110_46" x1="6.5" y1="50.5" x2="35.5" y2="77.5" gradientUnits="userSpaceOnUse">
<stop stop-color="#F86E0C"/>
<stop offset="1" stop-color="#F7BE09"/>
</linearGradient>
<linearGradient id="paint1_linear_110_46" x1="37.1852" y1="10.1852" x2="59.5926" y2="41.1481" gradientUnits="userSpaceOnUse">
<stop stop-color="#F8670B"/>
<stop offset="1" stop-color="#F7C509"/>
</linearGradient>
</defs>
</svg>
