<svg width="99" height="75" viewBox="0 0 99 75" fill="none" xmlns="http://www.w3.org/2000/svg">
<rect y="50" width="99" height="25" rx="3" fill="black"/>
<path d="M12.2172 65.68C12.2172 67.248 11.8492 68.4 11.1132 69.136C10.3772 69.872 9.24119 70.24 7.70519 70.24C6.18519 70.24 4.56919 70.16 2.85719 70V66.76C4.10519 66.84 5.38519 66.88 6.69719 66.88C7.06519 66.88 7.35319 66.776 7.56119 66.568C7.78519 66.344 7.89719 66.048 7.89719 65.68V56.56H4.77719V53.2H12.2172V65.68ZM19.8963 66.88C20.7443 66.88 21.7043 66.72 22.7763 66.4V64.96H19.2963C19.0563 64.96 18.8563 65.04 18.6963 65.2C18.5363 65.36 18.4563 65.56 18.4563 65.8V66.04C18.4563 66.28 18.5363 66.48 18.6963 66.64C18.8563 66.8 19.0563 66.88 19.2963 66.88H19.8963ZM15.4563 57.52C18.3843 57.2 21.0243 57.04 23.3763 57.04C24.4643 57.04 25.3363 57.368 25.9922 58.024C26.6483 58.68 26.9763 59.552 26.9763 60.64V70H23.2563L23.0163 68.8C22.2643 69.296 21.4883 69.664 20.6883 69.904C19.9043 70.128 19.2403 70.24 18.6963 70.24H17.8563C16.7683 70.24 15.8963 69.912 15.2402 69.256C14.5843 68.6 14.2563 67.728 14.2563 66.64V65.56C14.2563 64.472 14.5843 63.6 15.2402 62.944C15.8963 62.288 16.7683 61.96 17.8563 61.96H22.7763V61C22.7763 60.76 22.6963 60.56 22.5363 60.4C22.3763 60.24 22.1763 60.16 21.9363 60.16C20.8963 60.16 19.7443 60.208 18.4803 60.304C17.2323 60.4 16.2243 60.472 15.4563 60.52V57.52ZM32.2553 74.32C31.4073 74.32 30.3673 74.24 29.1353 74.08V70.96H31.2953C31.9033 70.96 32.2953 70.792 32.4713 70.456C32.6633 70.12 32.6313 69.648 32.3753 69.04L27.4553 57.28H31.8953L34.8953 65.44L37.4153 57.28H41.8553L37.0553 70.48C36.5913 71.744 35.9913 72.696 35.2553 73.336C34.5193 73.992 33.5193 74.32 32.2553 74.32Z" fill="url(#paint0_linear_114_3)"/>
<path d="M52.7005 61.12C52.7005 60.88 52.6205 60.68 52.4605 60.52C52.3005 60.36 52.1005 60.28 51.8605 60.28H51.2605C50.5885 60.28 50.0045 60.312 49.5085 60.376C49.0285 60.44 48.6525 60.488 48.3805 60.52V66.76H51.7405C52.3805 66.76 52.7005 66.44 52.7005 65.8V61.12ZM48.3805 57.52C49.9325 57.2 51.2925 57.04 52.4605 57.04H53.3005C54.3885 57.04 55.2605 57.368 55.9165 58.024C56.5725 58.68 56.9005 59.552 56.9005 60.64V66.16C56.9005 67.36 56.5565 68.304 55.8685 68.992C55.1965 69.664 54.2605 70 53.0605 70H44.1805V53.2H48.3805V57.52ZM65.5433 70C64.4713 70.16 63.4473 70.24 62.4713 70.24C61.5113 70.24 60.7033 69.912 60.0473 69.256C59.3913 68.6 59.0633 67.728 59.0633 66.64V53.2H63.2633V66.04C63.2633 66.28 63.3433 66.48 63.5033 66.64C63.6633 66.8 63.8633 66.88 64.1033 66.88H65.5433V70ZM80.1795 66.4C80.1795 67.6 79.8355 68.544 79.1475 69.232C78.4755 69.904 77.5395 70.24 76.3395 70.24H70.8195C69.6195 70.24 68.6755 69.904 67.9875 69.232C67.3155 68.544 66.9795 67.6 66.9795 66.4V60.88C66.9795 59.68 67.3155 58.744 67.9875 58.072C68.6755 57.384 69.6195 57.04 70.8195 57.04H76.3395C77.5395 57.04 78.4755 57.384 79.1475 58.072C79.8355 58.744 80.1795 59.68 80.1795 60.88V66.4ZM75.9795 61.24C75.9795 60.6 75.6595 60.28 75.0195 60.28H72.1395C71.4995 60.28 71.1795 60.6 71.1795 61.24V66.04C71.1795 66.68 71.4995 67 72.1395 67H75.0195C75.6595 67 75.9795 66.68 75.9795 66.04V61.24ZM90.6167 69.04C89.0647 69.36 87.7047 69.52 86.5367 69.52H85.6967C84.6087 69.52 83.7367 69.192 83.0807 68.536C82.4247 67.88 82.0967 67.008 82.0967 65.92V61.12C82.0967 59.92 82.4327 58.984 83.1047 58.312C83.7927 57.624 84.7367 57.28 85.9367 57.28H94.8167V70.72C94.8167 71.808 94.4887 72.68 93.8327 73.336C93.1767 73.992 92.3047 74.32 91.2167 74.32C88.7047 74.32 85.9047 74.16 82.8167 73.84V70.72C85.8727 70.96 88.1927 71.08 89.7767 71.08C90.0167 71.08 90.2167 71 90.3767 70.84C90.5367 70.68 90.6167 70.48 90.6167 70.24V69.04ZM87.7367 66.28C88.7447 66.28 89.7047 66.2 90.6167 66.04V60.52H87.2567C86.6167 60.52 86.2967 60.84 86.2967 61.48V65.44C86.2967 65.68 86.3767 65.88 86.5367 66.04C86.6967 66.2 86.8967 66.28 87.1367 66.28H87.7367Z" fill="white"/>
<circle cx="50" cy="23" r="23" fill="url(#paint1_linear_114_3)"/>
<g filter="url(#filter0_d_114_3)">
<path d="M65.0497 31.7247C65.3097 33.4696 64.0947 35.1098 62.3499 35.3697L41.7292 38.4417C39.9843 38.7016 38.3441 37.4867 38.0841 35.7418L36.5482 25.4315C36.2882 23.6866 37.5032 22.0464 39.248 21.7864L59.8687 18.7145C61.6136 18.4546 63.2538 19.6695 63.5138 21.4144L65.0497 31.7247Z" fill="#241043"/>
<path d="M36.0756 22.259L63.0412 18.2419L63.7501 23.0006L36.7845 27.0177L36.0756 22.259Z" fill="#3F7123"/>
<path d="M36.0756 22.259L63.0412 18.2419L63.8682 23.7937L36.9026 27.8108L36.0756 22.259Z" fill="#241043"/>
<path d="M36.0756 22.259L39.248 21.7864L36.9026 27.8108L36.0756 22.259ZM44.7997 20.9594L42.4544 26.9837L48.0061 26.1567L50.3515 20.1323L44.7997 20.9594ZM55.9032 19.3053L53.5578 25.3296L59.1096 24.5026L61.455 18.4782L55.9032 19.3053Z" fill="white"/>
<path d="M33.9326 17.072L59.1299 6.66486L61.2727 11.852L36.0756 22.2599L33.9326 17.072Z" fill="white"/>
<path d="M33.9326 17.0721L39.0403 21.0352L36.0756 22.26L33.9326 17.0721ZM49.4162 16.7501L44.3084 12.7862L39.1205 14.9291L44.2283 18.893L49.4162 16.7501ZM59.792 12.4642L54.6842 8.50032L49.4963 10.6433L54.604 14.6064L59.792 12.4642Z" fill="#241043"/>
</g>
<defs>
<filter id="filter0_d_114_3" x="29.9326" y="6.66479" width="39.1521" height="39.812" filterUnits="userSpaceOnUse" color-interpolation-filters="sRGB">
<feFlood flood-opacity="0" result="BackgroundImageFix"/>
<feColorMatrix in="SourceAlpha" type="matrix" values="0 0 0 0 0 0 0 0 0 0 0 0 0 0 0 0 0 0 127 0" result="hardAlpha"/>
<feOffset dy="4"/>
<feGaussianBlur stdDeviation="2"/>
<feComposite in2="hardAlpha" operator="out"/>
<feColorMatrix type="matrix" values="0 0 0 0 0 0 0 0 0 0 0 0 0 0 0 0 0 0 0.25 0"/>
<feBlend mode="normal" in2="BackgroundImageFix" result="effect1_dropShadow_114_3"/>
<feBlend mode="normal" in="SourceGraphic" in2="effect1_dropShadow_114_3" result="shape"/>
</filter>
<linearGradient id="paint0_linear_114_3" x1="6.5" y1="51.5" x2="35.5" y2="78.5" gradientUnits="userSpaceOnUse">
<stop stop-color="#F86E0C"/>
<stop offset="1" stop-color="#F7BE09"/>
</linearGradient>
<linearGradient id="paint1_linear_114_3" x1="37.6481" y1="10.6481" x2="61.0741" y2="43.0185" gradientUnits="userSpaceOnUse">
<stop stop-color="#F8670B"/>
<stop offset="1" stop-color="#F7C509"/>
</linearGradient>
</defs>
</svg>
